<svg preserveAspectRatio="none" width="26" height="27" viewBox="0 0 26 27" fill="none" xmlns="http://www.w3.org/2000/svg">
<path d="M22.654 13.3578C22.3787 13.3578 22.1147 13.4709 21.92 13.6722C21.7254 13.8735 21.616 14.1465 21.616 14.4311V20.8712C21.616 21.1559 21.5067 21.4289 21.312 21.6302C21.1174 21.8315 20.8534 21.9446 20.5781 21.9446H6.04682C5.77154 21.9446 5.50754 21.8315 5.31288 21.6302C5.11823 21.4289 5.00888 21.1559 5.00888 20.8712V5.84438C5.00888 5.55971 5.11823 5.2867 5.31288 5.08541C5.50754 4.88412 5.77154 4.77103 6.04682 4.77103H12.2745C12.5498 4.77103 12.8138 4.65795 13.0084 4.45666C13.2031 4.25536 13.3124 3.98235 13.3124 3.69769C13.3124 3.41302 13.2031 3.14001 13.0084 2.93872C12.8138 2.73742 12.5498 2.62434 12.2745 2.62434H6.04682C5.22098 2.62434 4.42896 2.96359 3.84501 3.56747C3.26105 4.17134 2.93298 4.99037 2.93298 5.84438V20.8712C2.93298 21.7252 3.26105 22.5442 3.84501 23.1481C4.42896 23.752 5.22098 24.0912 6.04682 24.0912H20.5781C21.4039 24.0912 22.1959 23.752 22.7799 23.1481C23.3638 22.5442 23.6919 21.7252 23.6919 20.8712V14.4311C23.6919 14.1465 23.5826 13.8735 23.3879 13.6722C23.1933 13.4709 22.9292 13.3578 22.654 13.3578ZM7.08477 14.1735V18.7245C7.08477 19.0092 7.19412 19.2822 7.38878 19.4835C7.58343 19.6848 7.84744 19.7979 8.12272 19.7979H12.5236C12.6602 19.7987 12.7956 19.7716 12.9221 19.7182C13.0485 19.6648 13.1636 19.5861 13.2606 19.4866L20.4431 12.0483L23.3909 9.06441C23.4882 8.96463 23.5654 8.84592 23.6181 8.71512C23.6708 8.58432 23.6979 8.44403 23.6979 8.30234C23.6979 8.16064 23.6708 8.02035 23.6181 7.88955C23.5654 7.75876 23.4882 7.64004 23.3909 7.54026L18.99 2.93561C18.8935 2.83501 18.7787 2.75516 18.6522 2.70066C18.5258 2.64617 18.3901 2.61812 18.2531 2.61812C18.1161 2.61812 17.9804 2.64617 17.8539 2.70066C17.7274 2.75516 17.6126 2.83501 17.5161 2.93561L14.5891 5.97318L7.38577 13.4115C7.28958 13.5118 7.21347 13.6307 7.16181 13.7615C7.11016 13.8922 7.08398 14.0323 7.08477 14.1735ZM18.2531 5.2111L21.1905 8.24867L19.7166 9.77282L16.7792 6.73525L18.2531 5.2111ZM9.16066 14.6136L15.3157 8.24867L18.2531 11.2862L12.0981 17.6512H9.16066V14.6136Z" fill="#B517E3"/>
</svg>
