<svg preserveAspectRatio="none" width="28" height="28" viewBox="0 0 28 28" fill="none" xmlns="http://www.w3.org/2000/svg">
<g clip-path="url(#clip0_118_323)">
<path d="M20.7055 1.74999H4.25553C2.43832 1.74999 0.96553 3.31679 0.96553 5.24999V22.75C0.96553 24.6832 2.43832 26.25 4.25553 26.25H20.7055C22.5227 26.25 23.9955 24.6832 23.9955 22.75V5.24999C23.9955 3.31679 22.5202 1.74999 20.7055 1.74999ZM19.04 17.582L18.4426 20.3377C18.3587 20.7274 18.0365 21 17.6592 21C11.1769 21 5.90259 15.3891 5.90259 8.48749C5.90259 8.08674 6.1588 7.74429 6.52512 7.65514L9.11496 7.01913C9.49249 6.926 9.87989 7.13447 10.0367 7.51471L11.2329 10.4831C11.3727 10.8327 11.2783 11.2395 11.002 11.4796L9.6172 12.6875C10.4906 14.5802 11.9377 16.1191 13.7179 17.0488L14.8498 15.5772C15.0732 15.2824 15.459 15.1807 15.7875 15.332L18.5758 16.6034C18.932 16.7672 19.1274 17.1828 19.04 17.582Z" fill="#B517E3"/>
</g>
<defs>
<clipPath id="clip0_118_323">
<rect width="27.0345" height="28" fill="white" transform="translate(0.96553)"/>
</clipPath>
</defs>
</svg>
