<svg preserveAspectRatio="none" width="30" height="26" viewBox="0 0 30 26" fill="none" xmlns="http://www.w3.org/2000/svg">
<g clip-path="url(#clip0_118_321)">
<path fill-rule="evenodd" clip-rule="evenodd" d="M15.1227 0.693819C23.1365 0.693819 29.6427 6.20805 29.6427 13C29.6427 19.792 23.1365 25.3062 15.1227 25.3062C7.10887 25.3062 0.602661 19.792 0.602661 13C0.602661 6.20805 7.10887 0.693819 15.1227 0.693819ZM10.5831 19.916V10.3056H6.81331V19.916H10.5831ZM24.174 19.916V14.4049C24.174 11.4529 22.3144 10.0796 19.8345 10.0796C17.8349 10.0796 16.9392 11.0117 16.4377 11.6663V10.3056H12.6689C12.7189 11.2073 12.6689 19.916 12.6689 19.916H16.4376V14.5489C16.4376 14.2616 16.462 13.9744 16.5619 13.7691C16.8339 13.1954 17.4545 12.6011 18.4957 12.6011C19.8589 12.6011 20.405 13.4827 20.405 14.7741V19.916H24.174ZM8.72365 5.67157C7.43387 5.67157 6.5912 6.39023 6.5912 7.33219C6.5912 8.25428 7.40823 8.99275 8.67374 8.99275H8.69807C10.0125 8.99275 10.8307 8.25428 10.8307 7.33219C10.8063 6.39023 10.0126 5.67157 8.72365 5.67157Z" fill="#B517E3"/>
</g>
<defs>
<clipPath id="clip0_118_321">
<rect width="29.04" height="24.6124" fill="white" transform="translate(0.602661 0.693819)"/>
</clipPath>
</defs>
</svg>
