<svg preserveAspectRatio="none" width="27" height="24" viewBox="0 0 27 24" fill="none" xmlns="http://www.w3.org/2000/svg">
<path fill-rule="evenodd" clip-rule="evenodd" d="M13.9569 1.94614C7.67526 1.94614 2.5819 6.77252 2.5819 12.7304C2.5819 17.4957 5.84206 21.5334 10.3616 22.9606C10.9303 23.0592 11.1385 22.7259 11.1385 22.4395C11.1385 22.1813 11.1284 21.5052 11.1233 20.6038C7.95964 21.2564 7.28932 19.1577 7.28932 19.1577C6.77135 17.9136 6.02487 17.5802 6.02487 17.5802C4.99401 16.9089 6.10104 16.9229 6.10104 16.9229C7.24362 16.9981 7.84284 18.0356 7.84284 18.0356C8.85846 19.6836 10.5038 19.2094 11.1538 18.9324C11.2553 18.2375 11.5499 17.7586 11.8749 17.491C9.35104 17.2187 6.69518 16.2938 6.69518 12.1623C6.69518 10.9839 7.13698 10.0214 7.86315 9.27022C7.74635 8.99791 7.35534 7.8993 7.97487 6.4157C7.97487 6.4157 8.92956 6.12462 11.103 7.51901C12.012 7.27957 12.9819 7.16219 13.9518 7.1575C14.9167 7.16219 15.8917 7.27957 16.8006 7.51901C18.9741 6.12462 19.9237 6.4157 19.9237 6.4157C20.5432 7.8993 20.1522 8.99791 20.0354 9.27022C20.7616 10.0261 21.2034 10.9886 21.2034 12.1623C21.2034 16.3032 18.5424 17.214 16.0085 17.4816C16.4147 17.815 16.7803 18.4723 16.7803 19.477C16.7803 20.9183 16.7651 22.0827 16.7651 22.4348C16.7651 22.7212 16.9682 23.0592 17.5471 22.9512C22.0768 21.5287 25.3319 17.491 25.3319 12.7304C25.3319 6.77252 20.2385 1.94614 13.9569 1.94614Z" fill="#B517E3"/>
</svg>
